<?xml version="1.0" encoding="UTF-8"?>
<!DOCTYPE svg PUBLIC "-//W3C//DTD SVG 1.1//EN" "http://www.w3.org/Graphics/SVG/1.1/DTD/svg11.dtd">
<!-- Creator: CorelDRAW X7 -->
<svg xmlns="http://www.w3.org/2000/svg" xml:space="preserve" width="81.9489mm" height="10.9135mm" version="1.1" style="shape-rendering:geometricPrecision; text-rendering:geometricPrecision; image-rendering:optimizeQuality; fill-rule:evenodd; clip-rule:evenodd"
viewBox="0 0 9410 1253"
 xmlns:xlink="http://www.w3.org/1999/xlink">
 <defs>
  <style type="text/css">
   <![CDATA[
    .str0 {stroke:#373435;stroke-width:8.75005}
    .fil0 {fill:none}
    .fil3 {fill:#338C26}
    .fil4 {fill:#373435;fill-rule:nonzero}
    .fil1 {fill:#005E7D;fill-rule:nonzero}
    .fil2 {fill:#338C26;fill-rule:nonzero}
   ]]>
  </style>
 </defs>
 <g id="Capa_x0020_1">
  <metadata id="CorelCorpID_0Corel-Layer"/>
  <rect class="fil0 str0" x="4" y="4" width="9401" height="1244"/>
  <g id="_803358864">
   <path class="fil1" d="M4158 1128l-62 0 0 -21c-11,9 -21,16 -30,20 -10,4 -21,6 -33,6 -23,0 -42,-9 -56,-27 -15,-18 -22,-43 -22,-74 0,-16 3,-31 8,-43 4,-13 11,-24 19,-33 8,-9 17,-15 29,-20 11,-5 22,-7 33,-7 12,0 21,1 29,3 7,3 15,6 23,10l0 -83 62 0 0 269zm-62 -54l0 -95c-5,-2 -9,-3 -14,-4 -5,-1 -9,-1 -13,-1 -17,0 -29,5 -37,15 -8,10 -12,25 -12,43 0,19 3,33 10,41 6,9 17,13 31,13 6,0 12,-1 18,-3 6,-2 12,-5 17,-9zm310 -84l0 138 -62 0 0 -97c0,-9 -1,-17 -1,-24 -1,-7 -2,-12 -4,-16 -2,-4 -5,-7 -9,-9 -5,-2 -10,-3 -18,-3 -6,0 -12,1 -18,4 -6,2 -11,5 -15,7l0 138 -63 0 0 -194 63 0 0 21c10,-8 20,-15 30,-19 10,-5 21,-7 33,-7 12,0 24,2 33,8 10,6 18,14 23,25 13,-10 25,-18 37,-24 11,-6 23,-9 34,-9 21,0 37,6 48,18 11,13 16,31 16,55l0 126 -62 0 0 -97c0,-10 0,-18 -1,-24 0,-7 -1,-12 -4,-16 -2,-4 -5,-7 -9,-9 -4,-2 -10,-3 -18,-3 -5,0 -10,1 -15,3 -5,1 -11,4 -18,8zm247 138l-62 0 0 -194 62 0 0 194zm2 -222l-66 0 0 -47 66 0 0 47zm251 222l-62 0 0 -96c0,-8 -1,-16 -1,-24 -1,-8 -3,-13 -5,-17 -2,-4 -5,-7 -10,-9 -4,-2 -10,-3 -18,-3 -6,0 -12,1 -17,3 -6,1 -12,4 -19,8l0 138 -62 0 0 -194 62 0 0 21c11,-8 21,-15 31,-19 11,-5 22,-7 34,-7 21,0 38,6 49,18 12,12 18,30 18,55l0 126zm120 0l-63 0 0 -194 63 0 0 194zm1 -222l-65 0 0 -47 65 0 0 47zm225 160c0,20 -9,36 -26,49 -18,12 -43,18 -74,18 -17,0 -33,-2 -47,-5 -14,-3 -25,-7 -34,-11l0 -50 6 0c3,2 6,4 11,7 4,2 9,5 17,8 6,3 14,5 22,7 8,2 17,3 26,3 12,0 21,-2 27,-4 6,-3 9,-7 9,-12 0,-5 -2,-9 -5,-11 -4,-2 -10,-4 -20,-6 -5,-1 -11,-2 -19,-3 -8,-1 -15,-3 -21,-5 -18,-4 -31,-11 -39,-21 -9,-10 -13,-22 -13,-36 0,-19 9,-34 26,-47 18,-12 42,-18 73,-18 14,0 28,1 41,4 14,3 24,6 32,10l0 49 -6 0c-9,-7 -19,-12 -31,-16 -12,-4 -24,-6 -36,-6 -10,0 -18,1 -25,4 -7,3 -11,7 -11,12 0,5 2,8 5,10 3,3 11,5 22,8 6,1 13,2 20,3 8,2 15,3 22,5 17,4 29,11 37,20 8,9 11,21 11,34zm166 60c-7,2 -14,3 -21,4 -8,1 -17,2 -28,2 -24,0 -42,-5 -54,-15 -12,-10 -18,-27 -18,-50l0 -91 -25 0 0 -42 25 0 0 -56 63 0 0 56 58 0 0 42 -58 0 0 69c0,7 0,13 0,18 0,5 1,9 3,13 1,4 4,8 8,10 4,2 10,4 18,4 3,0 8,-1 13,-3 5,-1 9,-2 11,-4l5 0 0 43zm177 -133l-5 0c-3,-1 -7,-1 -13,-2 -6,0 -11,0 -15,0 -8,0 -16,0 -23,1 -7,1 -14,3 -22,6l0 130 -62 0 0 -194 62 0 0 28c14,-11 26,-19 36,-23 10,-4 19,-6 28,-6 2,0 4,0 7,0 3,1 5,1 7,1l0 59zm153 84l0 -41c-8,1 -17,2 -27,3 -10,2 -17,3 -22,5 -6,2 -11,4 -14,8 -4,4 -5,9 -5,15 0,4 0,7 1,10 0,2 2,5 5,7 3,2 6,4 9,5 4,1 10,2 17,2 7,0 13,-1 19,-4 7,-2 12,-6 17,-10zm0 30c-3,3 -8,6 -12,9 -5,4 -10,7 -14,9 -6,3 -13,5 -19,6 -7,1 -14,2 -22,2 -18,0 -34,-6 -46,-17 -12,-12 -19,-26 -19,-44 0,-14 4,-26 10,-35 6,-9 15,-16 27,-21 11,-5 25,-9 42,-11 17,-2 35,-4 53,-5l0 -1c0,-11 -4,-18 -13,-22 -8,-4 -21,-6 -38,-6 -10,0 -21,2 -33,5 -12,4 -20,7 -25,9l-6 0 0 -47c7,-2 18,-4 32,-7 15,-2 30,-3 45,-3 35,0 60,5 76,16 16,11 23,28 23,52l0 132 -61 0 0 -21zm220 26c-17,0 -33,-2 -47,-6 -14,-4 -26,-10 -36,-19 -10,-8 -18,-19 -24,-31 -6,-13 -8,-28 -8,-45 0,-18 3,-34 9,-47 6,-13 14,-24 25,-33 10,-8 22,-14 36,-18 14,-3 28,-5 43,-5 13,0 25,1 36,4 11,3 22,7 32,11l0 53 -9 0c-3,-2 -6,-4 -9,-7 -3,-3 -7,-5 -12,-8 -5,-3 -10,-5 -16,-6 -6,-2 -12,-3 -20,-3 -16,0 -29,5 -38,16 -9,11 -13,25 -13,43 0,18 5,33 14,42 9,10 22,15 38,15 8,0 15,-1 22,-3 6,-2 11,-4 15,-6 4,-3 8,-5 10,-7 3,-3 6,-5 9,-8l9 0 0 53c-10,5 -20,8 -31,11 -11,3 -22,4 -35,4zm169 -5l-62 0 0 -194 62 0 0 194zm2 -222l-66 0 0 -47 66 0 0 47zm255 125c0,32 -9,57 -28,75 -19,18 -45,28 -78,28 -34,0 -60,-10 -79,-28 -18,-18 -28,-43 -28,-75 0,-32 10,-57 28,-76 19,-18 45,-27 79,-27 33,0 60,9 78,28 19,18 28,43 28,75zm-77 47c4,-5 7,-11 10,-18 2,-7 2,-17 2,-29 0,-11 -1,-21 -3,-28 -2,-8 -5,-14 -8,-19 -4,-4 -8,-8 -14,-10 -5,-2 -10,-3 -16,-3 -6,0 -12,1 -16,3 -5,1 -10,5 -14,9 -4,5 -7,11 -9,19 -2,8 -3,17 -3,29 0,11 1,20 3,28 2,7 5,14 8,18 4,5 8,8 14,10 5,2 11,3 17,3 6,0 11,-1 16,-3 5,-2 10,-5 13,-9zm32 -239l0 3 -61 64 -43 0 43 -67 61 0zm284 289l-63 0 0 -96c0,-8 0,-16 -1,-24 -1,-8 -2,-13 -4,-17 -2,-4 -6,-7 -10,-9 -4,-2 -11,-3 -19,-3 -5,0 -11,1 -17,3 -6,1 -12,4 -19,8l0 138 -62 0 0 -194 62 0 0 21c11,-8 22,-15 32,-19 10,-5 22,-7 34,-7 21,0 37,6 49,18 12,12 18,30 18,55l0 126z"/>
   <path class="fil2" d="M4664 397c0,47 -11,90 -32,127 -22,38 -49,66 -82,86 -25,15 -52,26 -82,32 -30,6 -65,9 -105,9l-179 0 0 -509 184 0c41,0 77,4 107,11 30,7 56,16 76,29 35,22 63,50 83,87 20,36 30,79 30,128zm-136 -1c0,-34 -6,-62 -19,-86 -12,-24 -31,-42 -57,-56 -13,-6 -27,-11 -41,-13 -14,-3 -35,-4 -63,-4l-33 0 0 318 33 0c31,0 54,-2 68,-5 15,-2 29,-7 43,-15 23,-14 41,-32 52,-55 11,-22 17,-51 17,-84zm352 255l-123 0 0 -384 123 0 0 384zm4 -439l-131 0 0 -93 131 0 0 93zm485 394c0,36 -5,66 -16,91 -10,25 -24,44 -43,58 -18,14 -40,24 -66,30 -27,6 -56,10 -89,10 -26,0 -53,-2 -79,-5 -25,-3 -48,-7 -67,-12l0 -96 15 0c15,6 34,11 55,16 22,5 41,8 58,8 23,0 42,-2 56,-6 14,-5 25,-11 32,-18 8,-8 13,-17 16,-28 3,-12 5,-25 5,-41l0 -7c-15,12 -32,21 -50,28 -18,7 -38,11 -60,11 -54,0 -95,-16 -124,-48 -29,-33 -44,-82 -44,-148 0,-31 4,-59 13,-82 9,-23 22,-43 38,-60 15,-15 34,-28 56,-37 21,-9 44,-13 67,-13 21,0 40,2 57,7 17,5 32,12 46,21l4 -18 120 0 0 339zm-123 -77l0 -173c-7,-3 -16,-5 -26,-7 -10,-2 -20,-3 -28,-3 -32,0 -56,10 -72,28 -17,19 -25,45 -25,78 0,37 7,62 21,77 14,14 34,22 61,22 12,0 24,-2 36,-6 12,-4 23,-9 33,-16zm362 122l-123 0 0 -384 123 0 0 384zm3 -439l-130 0 0 -93 130 0 0 93zm358 435c-13,4 -27,6 -42,8 -14,2 -33,3 -54,3 -48,0 -84,-9 -107,-29 -23,-19 -35,-52 -35,-99l0 -179 -50 0 0 -84 50 0 0 -109 123 0 0 109 115 0 0 84 -115 0 0 136c0,13 0,25 0,35 1,10 2,19 6,27 3,8 9,14 17,19 8,5 20,7 35,7 7,0 15,-1 25,-4 11,-3 18,-5 22,-8l10 0 0 84zm306 -97l0 -80c-17,2 -35,3 -54,6 -19,2 -34,5 -44,8 -12,4 -21,10 -28,17 -6,8 -9,17 -9,30 0,8 0,14 2,19 1,5 4,10 10,14 5,5 11,8 19,11 7,2 18,3 33,3 13,0 25,-3 38,-8 12,-5 23,-11 33,-20zm0 60c-7,5 -15,11 -25,18 -10,7 -19,13 -27,17 -12,5 -25,9 -38,12 -13,3 -27,4 -43,4 -36,0 -66,-11 -91,-34 -24,-22 -37,-51 -37,-86 0,-29 7,-51 19,-69 13,-18 30,-32 53,-42 23,-11 51,-18 85,-22 33,-5 68,-8 104,-10l0 -2c0,-21 -8,-36 -26,-44 -17,-8 -42,-12 -76,-12 -20,0 -42,4 -64,11 -23,7 -40,13 -50,16l-11 0 0 -92c13,-4 34,-8 63,-13 29,-4 59,-7 88,-7 70,0 120,11 151,33 31,21 46,55 46,101l0 262 -121 0 0 -41zm358 41l-123 0 0 -532 123 0 0 532z"/>
   <path class="fil1" d="M3827 1134l-270 0 -134 -391 -247 0 -134 391 -264 0 374 -1015 301 0 374 1015zm-404 -391l-124 -361 -123 361 247 0z"/>
   <g>
    <path class="fil3" d="M2811 1064c82,-67 126,-104 155,-128 5,-4 7,-6 54,-44 16,-14 35,-29 75,-62 35,-28 86,-70 165,-136l64 17c5,14 10,26 14,39 4,10 7,19 11,29 16,45 30,85 43,102 173,-168 251,-255 313,-331l49 -60 5 -7c15,-18 30,-37 47,-58 7,-9 15,-19 23,-29l0 0 -79 -68 245 -55 -13 250 -90 -76 0 0 -77 95c-16,20 -31,40 -48,60l0 0 0 0c-64,78 -143,166 -319,338l-2 2c-44,39 -79,32 -111,-3 -25,-28 -42,-77 -62,-133l-3 -8 -2 -6 -51 42 -71 59c-39,32 -58,47 -75,61 -16,13 -8,7 -53,44 -29,24 -74,61 -155,129l-26 -31 -26 -32z"/>
    <path id="1" class="fil4" d="M2963 933l6 6 0 0 -3 3 -3 2 -3 3 -3 2 -3 3 -3 2 -3 3 -4 3 -4 3 -3 3 -4 3 -4 4 -4 3 -5 4 -4 3 -5 4 -4 4 -5 4 -5 5 -6 4 -5 4 -6 5 -5 5 -6 5 -7 5 -6 5 -6 5 -7 6 -7 6 -7 6 -7 6 -8 6 -6 -7 8 -6 7 -6 7 -6 7 -6 7 -6 6 -5 7 -5 6 -5 6 -5 6 -5 5 -5 6 -4 5 -4 5 -5 5 -4 5 -4 4 -3 5 -4 4 -4 4 -3 4 -3 4 -4 4 -3 3 -3 4 -3 3 -2 4 -3 3 -3 3 -2 3 -3 3 -2 2 -2 0 0zm54 -45l6 7 0 0 -4 4 -4 3 -4 3 -4 3 -3 3 -3 2 -3 3 -3 2 -2 2 -2 2 -3 1 -1 2 -2 1 -2 2 -1 1 -2 1 -1 1 -1 1 -1 1 -1 1 -1 0 -1 1 0 1 -1 0 -1 1 0 0 -1 1 0 0 -1 0 0 1 -1 0 0 0 -6 -6 1 -1 0 0 1 -1 0 0 1 0 0 -1 1 0 0 -1 1 0 1 -1 0 0 1 -1 1 -1 1 -1 1 -1 2 -1 1 -1 1 -1 2 -1 2 -2 2 -1 2 -2 2 -2 3 -2 2 -2 3 -3 3 -2 4 -3 3 -3 4 -3 4 -3 4 -4 0 0zm75 -61l5 7 0 0 -3 3 -4 3 -3 2 -3 3 -4 3 -3 2 -3 3 -2 2 -3 2 -3 3 -3 2 -2 2 -3 2 -2 2 -2 2 -2 1 -3 2 -2 2 -2 2 -2 1 -2 2 -1 1 -2 2 -2 1 -2 2 -2 1 -1 2 -2 1 -1 1 -2 2 -2 1 -1 1 -6 -7 2 -1 1 -1 2 -2 1 -1 2 -1 2 -2 1 -1 2 -2 2 -1 2 -2 2 -1 2 -2 2 -1 2 -2 2 -2 2 -1 2 -2 2 -2 3 -2 2 -2 3 -2 2 -2 3 -3 3 -2 3 -2 3 -3 3 -2 3 -3 3 -3 4 -2 3 -3 4 -3 0 0zm169 -137l-2 9 4 -1 -7 6 -7 6 -8 6 -6 5 -7 6 -7 5 -6 5 -6 6 -7 5 -6 5 -5 4 -6 5 -6 5 -5 4 -5 4 -5 5 -5 4 -5 4 -5 4 -5 3 -4 4 -5 4 -4 3 -4 4 -4 3 -4 3 -4 3 -4 3 -3 3 -4 3 -3 3 -4 3 -5 -7 3 -3 4 -3 3 -3 4 -3 3 -3 4 -3 4 -3 4 -3 4 -4 5 -3 4 -4 5 -4 4 -3 5 -4 5 -4 5 -4 5 -5 5 -4 6 -4 5 -5 6 -5 6 -4 6 -5 6 -5 6 -5 7 -6 6 -5 7 -6 7 -5 7 -6 7 -6 7 -6 4 -1zm-4 1l2 -2 2 1 -4 1zm65 24l-63 -16 2 -9 64 16 3 3 -6 6zm3 -9l2 1 1 2 -3 -3zm18 42l-9 3 0 0 0 -1 -1 -1 0 -1 -1 -1 0 -2 0 -1 -1 -1 0 -1 -1 -1 0 -1 -1 -2 0 -1 -1 -1 0 -1 0 -1 -1 -2 0 -1 -1 -1 0 -1 -1 -2 0 -1 -1 -1 0 -1 -1 -1 0 -2 -1 -1 0 -1 -1 -2 0 -1 -1 -1 0 -1 -1 -2 9 -3 0 1 1 2 0 1 1 1 0 2 1 1 0 1 1 1 0 2 1 1 0 1 1 1 0 2 1 1 0 1 0 1 1 1 0 2 1 1 0 1 1 1 0 1 1 2 0 1 1 1 0 1 0 1 1 2 0 1 1 1 0 1 1 1 0 0zm10 29l-8 3 0 0 -1 -1 0 -1 0 0 -1 -1 0 -1 0 -1 -1 -1 0 -1 0 -1 -1 -1 0 0 0 -1 -1 -1 0 -1 0 -1 -1 -1 0 -1 0 -1 -1 -1 0 -1 0 -1 -1 0 0 -1 0 -1 0 -1 -1 -1 0 -1 0 -1 -1 -1 0 -1 -1 -1 0 -1 9 -3 0 1 0 1 1 1 0 1 0 1 1 1 0 1 0 1 1 1 0 1 0 0 1 1 0 1 0 1 1 1 0 1 0 1 1 1 0 1 0 1 1 0 0 1 0 1 0 1 1 1 0 1 0 1 1 1 0 1 0 0 1 1 0 1 0 0zm36 101l7 7 -7 -1 -2 -2 -1 -2 -1 -2 -1 -2 -2 -2 -1 -3 -1 -2 -2 -3 -1 -2 -1 -3 -2 -3 -1 -3 -1 -3 -2 -3 -1 -3 -1 -4 -2 -3 -1 -4 -1 -3 -2 -4 -1 -3 -2 -4 -1 -4 -2 -4 -1 -4 -1 -4 -2 -4 -1 -4 -2 -4 -1 -4 -2 -5 -1 -4 8 -3 2 4 1 5 2 4 1 4 1 4 2 4 1 4 2 4 1 4 2 4 1 3 1 4 2 4 1 3 2 4 1 3 1 3 2 3 1 3 1 3 2 3 1 3 1 3 1 2 2 3 1 2 1 2 1 3 1 2 2 1 1 2 1 2 -7 -1zm7 7l-4 3 -3 -4 7 1zm306 -338l7 6 0 0 -6 7 -6 7 -6 8 -6 7 -7 8 -6 7 -7 8 -7 8 -7 8 -8 8 -7 9 -8 9 -8 9 -9 9 -8 9 -9 10 -10 10 -9 10 -10 11 -11 10 -11 12 -11 11 -11 12 -12 12 -13 13 -13 13 -13 13 -14 14 -14 14 -15 15 -16 15 -15 16 -7 -7 16 -15 16 -15 14 -15 15 -14 14 -14 13 -14 13 -12 12 -13 12 -12 12 -12 11 -12 11 -11 10 -11 10 -10 10 -10 9 -10 9 -10 9 -9 8 -9 8 -9 8 -9 8 -8 7 -9 7 -8 7 -8 7 -8 6 -7 7 -8 6 -7 6 -7 6 -8 6 -7 0 0zm7 6l0 0 0 0 0 0zm49 -61l-49 61 -7 -6 49 -60 7 5 0 0zm0 0l0 0 -1 1 1 -1zm5 -6l-5 6 -7 -5 5 -7 0 0 7 6zm39 -64l7 6 0 0 -1 2 -2 2 -2 2 -1 1 -2 2 -1 2 -2 2 -1 2 -2 2 -1 2 -2 2 -1 1 -2 2 -1 2 -1 2 -2 2 -1 1 -2 2 -1 2 -2 2 -1 2 -2 1 -1 2 -1 2 -2 2 -1 2 -2 1 -1 2 -1 2 -2 2 -1 1 -1 2 -7 -6 1 -1 1 -2 2 -2 1 -2 1 -1 2 -2 1 -2 2 -2 1 -1 1 -2 2 -2 1 -2 2 -1 1 -2 2 -2 1 -2 2 -2 1 -2 1 -1 2 -2 1 -2 2 -2 1 -2 2 -2 1 -2 2 -1 1 -2 2 -2 1 -2 2 -2 2 -2 1 -2 0 0zm24 -29l7 6 0 0 -1 1 -1 1 -1 1 0 1 -1 1 -1 0 -1 1 0 1 -1 1 -1 1 -1 1 0 1 -1 1 -1 1 -1 1 0 1 -1 0 -1 1 -1 1 0 1 -1 1 -1 1 -1 1 0 1 -1 1 -1 1 0 0 -1 1 -1 1 -1 1 0 1 -1 1 -7 -6 1 -1 1 -1 0 0 1 -1 1 -1 0 -1 1 -1 1 -1 1 -1 0 -1 1 -1 1 0 0 -1 1 -1 1 -1 1 -1 0 -1 1 -1 1 -1 1 -1 0 -1 1 -1 1 0 1 -1 0 -1 1 -1 1 -1 1 -1 0 -1 1 -1 1 -1 1 -1 0 0zm7 6l0 0 -1 0 1 0zm0 0l0 0 -7 -6 0 0 6 -1 1 7zm-1 -7l4 3 -3 4 -1 -7zm-79 -67l79 67 -6 7 -78 -68 1 -7 4 1zm-5 6l-7 -5 8 -2 -1 7zm248 -54l-245 55 -2 -8 245 -56 5 5 -3 4zm-2 -9l6 -1 -1 6 -5 -5zm-16 255l12 -251 9 1 -12 250 -7 3 -2 -3zm9 0l-1 9 -6 -6 7 -3zm-92 -79l90 75 -5 7 -91 -75 -1 -7 7 0zm-7 0l3 -3 4 3 -7 0zm0 0l0 0 7 6 0 0 -7 -6 0 0zm0 0l0 0 0 1 0 -1zm-76 96l76 -96 7 6 -76 95 -7 -5 0 0zm0 0l0 0 0 -1 0 1zm-41 65l-7 -6 0 0 1 -2 2 -2 2 -2 1 -1 2 -2 1 -2 2 -2 1 -2 2 -2 1 -2 2 -1 1 -2 2 -2 1 -2 2 -2 1 -2 2 -2 1 -1 1 -2 2 -2 1 -2 2 -2 1 -2 2 -1 1 -2 2 -2 1 -2 2 -2 1 -2 2 -2 1 -1 2 -2 7 5 -2 2 -1 2 -2 2 -1 2 -2 2 -1 1 -2 2 -1 2 -2 2 -1 2 -2 2 -1 1 -2 2 -1 2 -1 2 -2 2 -1 2 -2 2 -1 1 -2 2 -1 2 -2 2 -1 2 -2 2 -1 2 -2 1 -1 2 -2 2 -2 2 -1 2 -2 2 -1 2 0 0zm-7 -6l0 0 0 0 0 0zm-1 1l1 -1 7 6 -1 0 0 0 -7 -5zm7 5l0 0 1 0 -1 0zm-3 -3l0 0 0 0 0 0 3 3 -3 -3zm3 3l0 0 1 0 -1 0zm-319 339l-6 -7 -1 0 17 -16 15 -15 16 -15 14 -15 14 -14 14 -13 13 -14 13 -12 12 -13 12 -12 11 -12 11 -11 11 -11 10 -11 10 -10 9 -10 10 -10 8 -10 9 -9 8 -9 8 -9 8 -9 7 -8 8 -8 7 -8 7 -8 6 -8 7 -8 6 -7 6 -8 6 -7 6 -7 7 5 -6 8 -6 7 -6 7 -6 8 -7 8 -7 7 -6 8 -8 9 -7 8 -7 8 -8 9 -8 9 -8 9 -9 9 -9 10 -9 10 -10 10 -10 10 -10 11 -10 11 -11 12 -12 11 -12 12 -12 13 -13 13 -13 13 -13 14 -15 14 -14 14 -15 15 -16 16 -16 16 0 0zm0 0l0 0 0 0 0 0zm-8 -6l2 -1 6 7 -2 1 -6 -7 0 0zm0 0l0 0 1 0 -1 0zm-111 3l6 -5 0 0 3 3 3 3 3 3 3 2 3 3 3 2 3 2 3 2 3 1 3 2 3 1 3 1 3 1 3 1 3 0 4 1 3 0 3 0 3 -1 3 0 4 -1 3 -1 4 -1 3 -1 4 -2 3 -2 4 -2 4 -3 4 -2 3 -3 4 -3 4 -4 6 7 -4 3 -4 4 -4 3 -4 3 -4 2 -4 3 -4 2 -4 2 -4 1 -4 2 -4 1 -4 1 -4 0 -4 1 -3 0 -4 0 -4 -1 -3 0 -4 -1 -4 -1 -3 -1 -4 -2 -3 -2 -3 -1 -4 -3 -3 -2 -3 -2 -4 -3 -3 -3 -3 -3 -3 -3 -3 -4 0 0zm-64 -134l9 -3 0 0 2 6 2 5 1 5 2 5 2 5 2 5 2 5 2 5 1 5 2 4 2 5 2 5 2 4 1 5 2 4 2 4 2 4 2 4 2 4 2 4 2 4 2 4 1 3 2 4 2 3 2 3 3 4 2 3 2 2 2 3 2 3 2 3 -6 5 -3 -2 -2 -3 -2 -3 -3 -3 -2 -3 -2 -4 -2 -3 -2 -4 -2 -3 -2 -4 -2 -4 -2 -4 -2 -4 -2 -4 -2 -4 -2 -4 -2 -5 -2 -4 -2 -4 -2 -5 -1 -5 -2 -4 -2 -5 -2 -5 -2 -5 -1 -5 -2 -5 -2 -5 -2 -5 -2 -5 -2 -5 -2 -6 0 0zm6 -11l3 8 -9 3 -3 -8 0 0 9 -3zm-9 3l0 0 1 3 -1 -3zm7 -8l2 5 -9 3 -1 -5 1 -5 7 2zm-7 -2l5 -4 2 6 -7 -2zm-50 41l50 -41 6 7 -51 41 0 0 -5 -7zm-72 59l72 -59 5 7 -71 59 0 0 -6 -7zm-69 68l-6 -7 0 0 2 -1 1 -1 2 -1 2 -2 1 -1 2 -1 2 -2 1 -1 2 -2 2 -1 2 -2 2 -1 2 -2 2 -2 2 -1 2 -2 2 -2 3 -2 2 -2 2 -2 3 -2 3 -2 2 -2 3 -3 3 -2 3 -2 3 -3 3 -3 4 -2 3 -3 3 -3 4 -3 6 7 -4 3 -3 3 -4 3 -3 2 -3 3 -3 3 -3 2 -3 2 -3 3 -3 2 -2 2 -3 2 -2 2 -3 2 -2 2 -2 2 -2 2 -2 1 -2 2 -2 2 -2 1 -2 2 -2 1 -2 2 -2 1 -1 1 -2 2 -2 1 -1 2 -2 1 -1 1 -2 1 0 0zm-53 45l-6 -7 0 0 4 -4 4 -3 3 -3 3 -2 3 -3 3 -2 3 -2 2 -2 2 -2 2 -1 2 -2 1 -1 2 -1 1 -1 1 -1 1 -1 1 -1 1 -1 1 -1 1 0 1 -1 1 -1 1 0 0 -1 1 -1 1 -1 1 0 1 -1 1 -1 2 -1 1 -1 1 -2 6 7 -1 2 -2 1 -1 1 -1 1 -1 1 -1 0 -1 1 -1 1 -1 0 0 1 -1 1 -1 0 -1 1 -1 1 -1 1 -1 1 -1 0 -1 1 -1 2 -2 1 -2 1 -1 2 -2 1 -2 2 -3 2 -2 2 -3 2 -3 3 -3 2 -4 3 -3 3 -4 4 0 0zm-162 128l7 -6 -6 -1 7 -6 8 -6 7 -6 7 -6 6 -5 7 -6 6 -5 6 -5 6 -5 6 -5 6 -4 5 -5 5 -4 5 -4 5 -4 5 -4 5 -4 4 -4 4 -3 5 -4 4 -3 4 -3 3 -3 4 -3 3 -3 4 -3 3 -3 3 -3 3 -2 3 -2 3 -3 3 -2 6 7 -3 2 -3 2 -3 3 -3 2 -3 3 -3 3 -4 3 -3 2 -4 3 -4 4 -4 3 -4 3 -4 4 -4 3 -5 4 -4 4 -5 4 -5 4 -5 4 -5 4 -6 5 -5 4 -6 5 -6 5 -6 5 -6 5 -7 6 -7 5 -7 6 -7 6 -7 6 -7 6 -7 0zm7 0l-4 3 -3 -3 7 0zm-26 -37l26 31 -7 6 -26 -32 0 0 7 -5zm-25 -31l25 31 -7 5 -25 -31 0 -6 7 1zm-7 5l-3 -3 3 -3 0 6z"/>
   </g>
  </g>
 </g>
</svg>
